<?xml version="1.0" encoding="UTF-8"?>
<svg width="26px" height="29px" viewBox="0 0 26 29" version="1.1" xmlns="http://www.w3.org/2000/svg" xmlns:xlink="http://www.w3.org/1999/xlink">
    <title>Group 18</title>
    <g id="Page-1" stroke="none" stroke-width="1" fill="none" fill-rule="evenodd">
        <g id="Group-18" transform="translate(0.103706, 1.595255)" stroke="#8B8FA3" stroke-width="2">
            <line x1="0" y1="5.30396785" x2="24.6030665" y2="5.30396785" id="Path-34"></line>
            <path d="M3.22944663,5.30396785 L3.22944663,23.984529 C3.22944663,25.0890985 4.12487714,25.984529 5.22944663,25.984529 L19.6105011,25.984529 C20.7150706,25.984529 21.6105011,25.0890985 21.6105011,23.984529 L21.6105011,5.30396785 L21.6105011,5.30396785" id="Path-35"></path>
            <path d="M7.20108672,5.30396785 L7.20108672,2 C7.20108672,0.8954305 8.09651722,6.46995335e-16 9.20108672,0 L15.3988765,0 C16.503446,-2.02906125e-16 17.3988765,0.8954305 17.3988765,2 L17.3988765,5.30396785 L17.3988765,5.30396785" id="Path-36"></path>
            <line x1="9.74885324" y1="10.601212" x2="9.74885324" y2="19.9642281" id="Path-37"></line>
            <line x1="14.9188642" y1="10.601212" x2="14.9188642" y2="19.9642281" id="Path-38"></line>
        </g>
    </g>
</svg>